<svg width="45" height="50" viewBox="0 0 45 50" xmlns="http://www.w3.org/2000/svg">
  <g fill="none" fill-rule="evenodd">
    <path d="M20.173,46.6666667 C23.908,46.6666667 26.9346667,43.6383333 26.9346667,39.905 C26.9346667,36.17 23.908,33.1416667 20.173,33.1416667 C16.438,33.1416667 13.4113333,36.17 13.4113333,39.905 C13.4113333,43.6383333 16.438,46.6666667 20.173,46.6666667" fill="#00B7B5" transform="translate(2 1.667)"/>
    <path d="M20.173 46.667C23.908 46.667 26.935 43.638 26.935 39.905 26.935 36.17 23.908 33.142 20.173 33.142 16.438 33.142 13.411 36.17 13.411 39.905 13.411 43.638 16.438 46.667 20.173 46.667ZM20.174 0C18.161 0 16.521 1.637 16.521 3.65L16.521 11.715 23.824 11.715 23.824 3.65C23.824 1.637 22.188 0 20.174 0Z" stroke="#00265D" stroke-width="3.333" stroke-linecap="round" stroke-linejoin="round" transform="translate(2 1.667)"/>
    <path d="M35.7166667,26.527 L33.0666667,15.7936667 C31.5983333,9.86866667 26.2783333,5.70866667 20.1733333,5.71366216 C14.0716667,5.71366216 8.75666667,9.872 7.29,15.7936667 L4.63,26.527 C4.04666667,28.8936667 2.30333333,30.8053333 0,31.6036667 L0,39.5253333 L40.3433333,39.5253333 L40.3433333,31.6036667 C38.0416667,30.8036667 36.3,28.8936667 35.7166667,26.527" fill="#FFD579" transform="translate(2 1.667)"/>
    <path d="M35.7166667,26.527 L33.0666667,15.7936667 C31.5983333,9.86866667 26.2783333,5.70866667 20.1733333,5.71366216 C14.0716667,5.71366216 8.75666667,9.872 7.29,15.7936667 L4.63,26.527 C4.04666667,28.8936667 2.30333333,30.8053333 0,31.6036667 L0,39.5253333 L40.3433333,39.5253333 L40.3433333,31.6036667 C38.0416667,30.8036667 36.3,28.8936667 35.7166667,26.527 Z" stroke="#00265D" stroke-width="3.333" stroke-linecap="round" stroke-linejoin="round" transform="translate(2 1.667)"/>
  </g>
</svg>
